<svg id="unchanged_toggle" version="1.1" xmlns="http://www.w3.org/2000/svg" xmlns:xlink="http://www.w3.org/1999/xlink" x="0" y="0" width="100" height="63" viewBox="0, 0, 100, 63">
  <g id="Layer_1">
    <path d="M58.6,29 L66.7,20.9 C68.3,23.7 69.2,27 69.2,30.4 C69.2,41 60.6,49.6 50,49.6 C46.5,49.6 43.3,48.7 40.5,47.1 L48.4,39.2 C48.8,39.2 49.1,39.3 49.5,39.3 C54.6,39.3 58.7,35.2 58.7,30.1 C58.7,29.7 58.7,29.4 58.6,29 z M58.7,30.1 C58.7,35.2 54.6,39.3 49.5,39.3 C49.1,39.3 48.8,39.3 48.4,39.2 L40.5,47.1 C43.3,48.7 46.6,49.6 50,49.6 C60.6,49.6 69.2,41 69.2,30.4 C69.2,26.9 68.3,23.7 66.7,20.9 L58.6,29 C58.7,29.4 58.7,29.7 58.7,30.1 z M100,30.3 C100,30.3 100,30.2 100,30.2 C100,30.2 100,30.2 100,30.1 C100,30.1 100,30 100,30 C100,30 100,29.9 100,29.9 C100,29.9 100,29.9 100,29.9 C99.9,29.3 99.7,28.8 99.3,28.3 C99.2,28.1 99.1,28 98.9,27.9 C95.7,24.1 91.9,20.8 88.1,17.7 C87.3,17.1 86.5,16.5 85.7,15.9 C85.6,15.8 85.5,15.7 85.3,15.6 C84.5,15 83.7,14.4 82.8,13.8 C82.8,13.8 82.7,13.8 82.7,13.7 C80.9,12.5 79.1,11.3 77.3,10.3 L66.7,21 C68.3,23.8 69.2,27.1 69.2,30.5 C69.2,41.1 60.6,49.7 50,49.7 C46.5,49.7 43.3,48.8 40.5,47.2 L32.3,55.4 C33.5,55.9 34.8,56.3 36.1,56.7 C36.1,56.7 36.2,56.7 36.2,56.7 C36.8,56.9 37.4,57 38,57.2 C38.1,57.2 38.2,57.3 38.3,57.3 C39,57.5 39.6,57.6 40.3,57.8 C44.8,58.8 49.4,59 54,58.7 C55.5,58.6 57,58.4 58.6,58.1 C62.1,57.5 65.5,56.4 68.7,55.1 C70.7,54.3 72.6,53.4 74.5,52.5 C77.4,51 80.3,49.3 83,47.4 C84.8,46.1 86.6,44.8 88.3,43.4 C90.9,41.3 93.3,39.1 95.7,36.8 C96.9,35.7 98,34.5 99,33.2 C99.3,32.9 99.5,32.6 99.7,32.3 C99.9,32 100,31.6 100.1,31.2 C100.1,31.2 100.1,31.2 100.1,31.2 C100.1,31.2 100.1,31.1 100.1,31.1 C100.1,31.1 100.1,31 100.1,31 C100.1,31 100.1,31 100.1,30.9 C100.1,30.9 100.1,30.8 100.1,30.8 C100.1,30.7 100.1,30.7 100.1,30.6 C100.1,30.5 100,30.4 100,30.3 z M58.7,30.1 C58.7,29.7 58.7,29.4 58.6,29 L48.4,39.2 C48.8,39.2 49.1,39.3 49.5,39.3 C54.6,39.3 58.7,35.2 58.7,30.1 z M48.4,39.2 L58.6,29 L66.7,20.9 L77.4,10.2 L84.8,2.8 C85.4,2.2 85.4,1.3 84.8,0.7 C84.2,0.1 83.3,0.1 82.7,0.7 L23,60.4 C22.4,61 22.4,61.9 23,62.5 C23.3,62.8 23.7,62.9 24.1,62.9 C24.5,62.9 24.9,62.8 25.2,62.5 L32.4,55.3 L40.6,47.1 L48.4,39.2 z" fill="#000000"/>
    <path d="M67.8,5.7 C65.2,4.7 62.5,3.9 59.8,3.3 C53.7,2 47.6,1.9 41.5,3 C36,4 30.6,6.1 25.6,8.6 C17.8,12.6 10.6,18.1 4.4,24.3 C3.2,25.4 2.1,26.6 1.1,27.9 C-0.3,29.6 -0.3,31.5 1.1,33.2 C4.3,37 8.1,40.3 11.9,43.4 C15.3,46.1 18.9,48.6 22.7,50.8 L67.8,5.7 z" fill="#000000"/>
  </g>
</svg>
